<svg width="25" height="24" viewBox="0 0 25 24" fill="none" xmlns="http://www.w3.org/2000/svg">
<circle cx="12.616" cy="12" r="12" fill="#333333"/>
<path fill-rule="evenodd" clip-rule="evenodd" d="M16.616 8L15.8924 6.55279C15.723 6.214 15.3767 6 14.9979 6H10.234C9.85523 6 9.50897 6.214 9.33957 6.55279L8.61597 8H6.61597C6.06368 8 5.61597 8.44772 5.61597 9V16C5.61597 16.5523 6.06368 17 6.61597 17H18.616C19.1683 17 19.616 16.5523 19.616 16V9C19.616 8.44772 19.1683 8 18.616 8H16.616ZM12.616 15C14.2728 15 15.616 13.6569 15.616 12C15.616 10.3431 14.2728 9 12.616 9C10.9591 9 9.61597 10.3431 9.61597 12C9.61597 13.6569 10.9591 15 12.616 15Z" fill="white"/>
</svg>
